<?xml version="1.0" encoding="utf-8"?>
<!DOCTYPE svg PUBLIC "-//W3C//DTD SVG 1.1//EN" "http://www.w3.org/Graphics/SVG/1.1/DTD/svg11.dtd">
<svg version="1.1" id="Layer_1" xmlns="http://www.w3.org/2000/svg" xmlns:xlink="http://www.w3.org/1999/xlink" x="0px" y="0px"
	 width="50px" height="50px" viewBox="0 0 50 50" enable-background="new 0 0 50 50" xml:space="preserve">
<path fill="black" d="M0,0v50h50V0H0z M27.229,38.998c0,4.865-2.853,7.078-7.016,7.078c-3.762,0-5.94-1.945-7.048-4.291
	l3.825-2.316c0.738,1.311,1.41,2.418,3.024,2.418c1.543,0,2.517-0.604,2.517-2.953V22.958h4.699V38.998z M38.331,46.086
	c-4.364,0-7.183-2.08-8.562-4.805l3.818-2.219c1.006,1.645,2.316,2.854,4.635,2.854c1.946,0,3.189-0.973,3.189-2.318
	c0-1.611-1.277-2.182-3.42-3.119l-1.175-0.504c-3.391-1.443-5.643-3.254-5.643-7.078c0-3.525,2.685-6.208,6.881-6.208
	c2.987,0,5.135,1.04,6.683,3.762l-3.658,2.35c-0.807-1.445-1.676-2.014-3.024-2.014c-1.376,0-2.249,0.873-2.249,2.014
	c0,1.41,0.873,1.98,2.89,2.854l1.175,0.502c3.992,1.713,6.246,3.457,6.246,7.381C46.117,43.768,42.793,46.086,38.331,46.086z"/>
</svg>
